Coordinates
version=1
nRows=8
nColumns=40
inDegrees=yes

Units are S.I. units (second, meters, Newtons, ...)
If the header above contains a line with 'inDegrees', this indicates whether rotational values are in degrees (yes) or radians (no).

endheader
time	pelvis_tilt	pelvis_list	pelvis_rotation	pelvis_tx	pelvis_ty	pelvis_tz	hip_flexion_r	hip_adduction_r	hip_rotation_r	knee_angle_r	knee_angle_r_beta	ankle_angle_r	subtalar_angle_r	mtp_angle_r	hip_flexion_l	hip_adduction_l	hip_rotation_l	knee_angle_l	knee_angle_l_beta	ankle_angle_l	subtalar_angle_l	mtp_angle_l	lumbar_extension	lumbar_bending	lumbar_rotation	arm_flex_r	arm_add_r	arm_rot_r	elbow_flex_r	pro_sup_r	wrist_flex_r	wrist_dev_r	arm_flex_l	arm_add_l	arm_rot_l	elbow_flex_l	pro_sup_l	wrist_flex_l	wrist_dev_l
      1.59500000	    -38.43241555	     13.44254878	    -21.10118227	     -0.44413264	      0.55543763	     -0.87319742	    114.10663011	      2.54098517	      3.33878232	    100.23598136	      1.74944790	     30.73154155	      0.00000000	      0.00000000	    105.75061045	    -49.89758337	     -4.69433344	    103.02591054	      1.79814135	     34.65915535	      0.00000000	      0.00000000	    -16.16126343	    -21.99622521	      5.13879762	     -4.54987380	    -41.58706378	     60.57145722	     91.43026397	     87.47095371	      0.00000000	      0.00000000	    -42.40672436	    -46.72300046	     18.85253448	     96.89674320	     87.58518883	      0.00000000	      0.00000000
      1.60000000	    -38.36997908	     13.37997421	    -20.98099568	     -0.44377488	      0.55382859	     -0.87344727	    114.22979091	      2.38023995	      3.37545869	    100.58394791	      1.75552107	     30.77573611	      0.00000000	      0.00000000	    105.96078091	    -49.89529319	     -4.57191877	    103.32997689	      1.80344831	     34.70377681	      0.00000000	      0.00000000	    -16.45616063	    -21.94353311	      4.93585566	     -4.56697524	    -41.57956393	     60.57996265	     91.49471811	     87.46591643	      0.00000000	      0.00000000	    -42.38516959	    -46.63933991	     18.92862023	     96.83082643	     87.58627671	      0.00000000	      0.00000000
      1.60500000	    -39.15440234	     13.01688308	    -20.80517788	     -0.44507698	      0.55065654	     -0.87451977	    115.11878248	      2.16763873	      2.83864677	    100.72913779	      1.75805511	     30.56063782	      0.00000000	      0.00000000	    108.09755556	    -49.88499859	     -3.24906076	    103.75156493	      1.81080641	     34.20709663	      0.00000000	      0.00000000	    -15.88271332	    -21.21074864	      5.02485470	     -4.69486049	    -42.02360371	     60.54723843	     91.94037888	     87.43989441	      0.00000000	      0.00000000	    -42.61900207	    -46.31211122	     18.82852242	     96.80218479	     87.56561602	      0.00000000	      0.00000000
      1.61000000	    -39.06976811	     13.01444324	    -20.73633884	     -0.44476617	      0.54893418	     -0.87480240	    115.22823049	      2.04087451	      2.88596233	    101.03050432	      1.76331495	     30.72478419	      0.00000000	      0.00000000	    108.24787780	    -49.88507407	     -3.14501635	    104.08013191	      1.81654099	     34.31502262	      0.00000000	      0.00000000	    -16.12849321	    -21.21329247	      4.92462520	     -4.72866569	    -42.03666569	     60.59459252	     91.95402149	     87.44471859	      0.00000000	      0.00000000	    -42.54236072	    -46.25220993	     18.86615147	     96.77532031	     87.56856529	      0.00000000	      0.00000000
      1.61500000	    -39.04767275	     13.03353724	    -20.60242842	     -0.44466692	      0.54704810	     -0.87544702	    115.44743228	      1.85760851	      2.98154855	    101.33106520	      1.76856072	     30.84696177	      0.00000000	      0.00000000	    108.47562089	    -49.88034706	     -3.11950345	    104.44542831	      1.82291661	     34.43682968	      0.00000000	      0.00000000	    -16.33193669	    -21.17713277	      4.74840138	     -4.74364110	    -42.13095088	     60.59422003	     92.00778279	     87.44831177	      0.00000000	      0.00000000	    -42.48390378	    -46.22404783	     18.90028233	     96.77311858	     87.55754023	      0.00000000	      0.00000000
      1.62000000	    -39.00268033	     13.06519418	    -20.61887054	     -0.44487382	      0.54539117	     -0.87539046	    115.63483374	      1.88714977	      3.01031132	    101.60647314	      1.77336750	     30.94404390	      0.00000000	      0.00000000	    108.69101130	    -49.88346043	     -2.90373769	    104.63103094	      1.82615599	     34.47249705	      0.00000000	      0.00000000	    -16.53144228	    -21.25127994	      4.64502137	     -4.71810397	    -42.13291192	     60.59574266	     92.13006624	     87.45020655	      0.00000000	      0.00000000	    -42.52506515	    -46.14895814	     19.05942207	     96.73636253	     87.57616177	      0.00000000	      0.00000000
      1.62500000	    -38.79775148	     12.19747913	    -20.71184781	     -0.44394776	      0.54467341	     -0.87438824	    115.13412630	      1.78872686	      2.28915643	    101.89812484	      1.77845778	     31.32931544	      0.00000000	      0.00000000	    109.42027910	    -49.88782571	     -1.36930085	    104.91998592	      1.83119921	     34.60854546	      0.00000000	      0.00000000	    -17.07910756	    -20.51894063	      5.36052790	     -5.25419792	    -42.07071572	     60.07485922	     92.00531527	     87.20597187	      0.00000000	      0.00000000	    -41.26768028	    -46.81429047	     20.39115098	     96.59974046	     87.44932742	      0.00000000	      0.00000000
      1.63000000	    -39.00836682	     12.46688789	    -20.57266398	     -0.44464852	      0.54196183	     -0.87560233	    115.79414787	      1.66680058	      2.54610591	    102.20308507	      1.78378034	     31.34183182	      0.00000000	      0.00000000	    109.97630088	    -49.87816986	     -1.46768369	    105.34220009	      1.83856823	     34.57944344	      0.00000000	      0.00000000	    -16.93827375	    -20.61742028	      5.10727129	     -5.34236282	    -42.31449069	     59.99837163	     92.25490782	     87.25930634	      0.00000000	      0.00000000	    -41.41298937	    -46.54152216	     20.52618195	     96.60979344	     87.48999854	      0.00000000	      0.00000000
